<svg width="298" height="246" viewBox="0 0 298 246" fill="none" xmlns="http://www.w3.org/2000/svg">
<path d="M0.680424 0.930393L62.4504 0.900394C62.5084 0.900129 62.5655 0.914688 62.6162 0.942692C62.667 0.970695 62.7097 1.01121 62.7404 1.06039L75.9004 22.8104C75.9341 22.8644 75.952 22.9267 75.952 22.9904C75.952 23.054 75.9341 23.1164 75.9004 23.1704L45.0004 74.0104C44.97 74.06 44.9274 74.1011 44.8766 74.1295C44.8259 74.158 44.7686 74.1729 44.7104 74.1729C44.6522 74.1729 44.595 74.158 44.5442 74.1295C44.4934 74.1011 44.4508 74.06 44.4204 74.0104L0.390423 1.45039C0.358232 1.39881 0.340465 1.33954 0.33897 1.27875C0.337475 1.21797 0.352308 1.15789 0.381924 1.10479C0.411539 1.05168 0.45485 1.00749 0.507351 0.976818C0.559852 0.946145 0.61962 0.930114 0.680424 0.930393Z" fill="#A7BC39"/>
<path d="M117.73 91.7898L138.53 125.93C138.57 125.996 138.59 126.072 138.59 126.15C138.59 126.227 138.57 126.303 138.53 126.37L107.72 177.12C107.682 177.184 107.628 177.237 107.563 177.274C107.498 177.311 107.425 177.331 107.35 177.331C107.275 177.331 107.202 177.311 107.137 177.274C107.072 177.237 107.018 177.184 106.98 177.12L55.1699 91.7399C55.1303 91.6733 55.1094 91.5973 55.1094 91.5199C55.1094 91.4424 55.1303 91.3664 55.1699 91.2999L109.96 1.04985C109.998 0.985763 110.052 0.9327 110.117 0.895882C110.182 0.859064 110.255 0.83975 110.33 0.839844H171.97C172.045 0.841487 172.118 0.862811 172.183 0.901688C172.247 0.940565 172.3 0.995638 172.337 1.06141C172.373 1.12718 172.392 1.20135 172.39 1.27653C172.389 1.3517 172.368 1.42526 172.33 1.48985L117.73 91.3499C117.69 91.4164 117.669 91.4924 117.669 91.5699C117.669 91.6473 117.69 91.7233 117.73 91.7898Z" fill="#128C89"/>
<path d="M148.56 245.53L117.87 195.01C117.82 194.929 117.794 194.836 117.794 194.74C117.794 194.645 117.82 194.552 117.87 194.47L235.21 1.15039C235.256 1.0747 235.32 1.01201 235.397 0.968254C235.474 0.924503 235.561 0.901144 235.65 0.900391L297.03 0.910393C297.121 0.91117 297.211 0.936283 297.29 0.983177C297.37 1.03007 297.435 1.09706 297.479 1.17735C297.524 1.25763 297.547 1.34832 297.545 1.4402C297.543 1.53208 297.517 1.62185 297.47 1.70039L149.44 245.53C149.393 245.605 149.328 245.666 149.251 245.709C149.174 245.751 149.087 245.773 149 245.773C148.912 245.773 148.825 245.751 148.748 245.709C148.671 245.666 148.606 245.605 148.56 245.53Z" fill="#A7BC39"/>
</svg>
