<svg width="24" height="25" viewBox="0 0 24 25" fill="none" xmlns="http://www.w3.org/2000/svg">
<path d="M12.63 2.875C18.16 2.875 22.64 7.375 22.64 12.875C22.64 18.375 18.16 22.875 12.63 22.875C9.12 22.875 6.05 21.055 4.26 18.305L5.84 17.055C7.25 19.345 9.76 20.875 12.64 20.875C14.7617 20.875 16.7966 20.0321 18.2969 18.5319C19.7971 17.0316 20.64 14.9967 20.64 12.875C20.64 10.7533 19.7971 8.71844 18.2969 7.21815C16.7966 5.71785 14.7617 4.875 12.64 4.875C8.56 4.875 5.2 7.935 4.71 11.875H7.47L3.73 15.605L0 11.875H2.69C3.19 6.825 7.45 2.875 12.63 2.875ZM15.59 11.115C16.09 11.125 16.5 11.525 16.5 12.035V16.645C16.5 17.145 16.09 17.565 15.58 17.565H10.05C9.54 17.565 9.13 17.145 9.13 16.645V12.035C9.13 11.525 9.54 11.125 10.04 11.115V10.105C10.04 8.575 11.29 7.335 12.81 7.335C14.34 7.335 15.59 8.575 15.59 10.105V11.115ZM12.81 8.735C12.06 8.735 11.44 9.345 11.44 10.105V11.115H14.19V10.105C14.19 9.345 13.57 8.735 12.81 8.735Z" fill="#1F2E5D"/>
</svg>
